<svg height="357" width="626" xmlns="http://www.w3.org/2000/svg"><defs><style type="text/css">text{font-family:arial;font-size:16px}g.anonymous&gt;text{font-style:italic}g.parent&gt;rect{fill:none;stroke:gray}g.item&gt;rect{fill:lightgray}g.item&gt;text{text-anchor:middle}g.dependency&gt;text{fill:white;text-anchor:middle}</style></defs><symbol id="down-arrow" preserveAspectRatio="xMidYMax slice" viewBox="0,0,1,1"><polygon fill="darkgreen" points="0,0.85 0,0 1,0 1,0.85 0.5,1"></polygon></symbol><symbol id="right-arrow" preserveAspectRatio="xMaxYMid slice" viewBox="0,0,1,1"><polygon fill="darkred" points="0.85,0 0,0 0,1 0.85,1 1,0.5"></polygon></symbol><symbol id="up-arrow" preserveAspectRatio="xMidYMin slice" viewBox="0,0,1,1"><polygon fill="darkred" points="0,0.15 0,1 1,1 1,0.15 0.5,0"></polygon></symbol><g class="item"><rect height="64" width="88.8"></rect><text x="44.4" y="25.76">javascript</text><g class="dependency"><use href="#down-arrow" height="24" width="36.88" x="12" y="34"></use><text x="30.44" y="51.76">156</text></g><g class="dependency"><use href="#up-arrow" height="24" width="27.92" x="52.88" y="34"></use><text x="66.84" y="51.76">25</text></g></g><g class="dependency"><use href="#down-arrow" height="24" width="27.92" x="30.44" y="64"></use><text x="44.4" y="81.76">21</text></g><g class="dependency"><use href="#down-arrow" height="24" width="18.96" x="67.32" y="103"></use><text x="76.8" y="120.76">3</text></g><g class="item"><rect height="64" width="153.6" y="127"></rect><text x="76.8" y="152.76">javascript-analyzer</text><g class="dependency"><use href="#down-arrow" height="24" width="36.88" x="44.4" y="161"></use><text x="62.84" y="178.76">389</text></g><g class="dependency"><use href="#up-arrow" height="24" width="27.92" x="85.28" y="161"></use><text x="99.24" y="178.76">16</text></g></g><g class="dependency"><use href="#down-arrow" height="24" width="27.92" x="62.84" y="191"></use><text x="76.8" y="208.76">12</text></g><g class="dependency"><use href="#down-arrow" height="24" width="27.92" x="252.08" y="103"></use><text x="266.04" y="120.76">12</text></g><g class="item"><rect height="64" width="194.88" x="168.6" y="127"></rect><text x="266.04" y="152.76">processors and renderer</text><g class="dependency"><use href="#down-arrow" height="24" width="45.84" x="224.68" y="161"></use><text x="247.6" y="178.76">1405</text></g><g class="dependency"><use href="#up-arrow" height="24" width="36.88" x="274.52" y="161"></use><text x="292.96" y="178.76">126</text></g></g><g class="dependency"><use href="#down-arrow" height="24" width="18.96" x="256.56" y="191"></use><text x="266.04" y="208.76">9</text></g><g class="dependency"><use href="#down-arrow" height="24" width="18.96" x="125.16" y="230"></use><text x="134.64" y="247.76">4</text></g><g class="item"><rect height="64" width="269.28" y="254"></rect><text x="134.64" y="279.76">call-with-process-standard-streams</text><g class="dependency"><use href="#down-arrow" height="24" width="18.96" x="125.16" y="288"></use><text x="134.64" y="305.76">5</text></g></g><g class="dependency"><use href="#down-arrow" height="24" width="18.96" x="375.52" y="230"></use><text x="385" y="247.76">5</text></g><g class="item"><rect height="64" width="201.44" x="284.28" y="254"></rect><text x="385" y="279.76">run-tests-from-file-system</text><g class="dependency"><use href="#down-arrow" height="24" width="27.92" x="361.56" y="288"></use><text x="375.52" y="305.76">71</text></g><g class="dependency"><use href="#up-arrow" height="24" width="18.96" x="393.48" y="288"></use><text x="402.96" y="305.76">1</text></g></g><g class="dependency"><use href="#down-arrow" height="24" width="27.92" x="549.4" y="230"></use><text x="563.36" y="247.76">18</text></g><g class="item"><rect height="64" width="125.28" x="500.72" y="254"></rect><text x="563.36" y="279.76">test-harnesses</text><g class="dependency"><use href="#down-arrow" height="24" width="27.92" x="549.4" y="288"></use><text x="563.36" y="305.76">65</text></g></g><g class="dependency"><use href="#down-arrow" height="24" width="45.84" x="271.64" y="333"></use><text x="294.56" y="350.76">2133</text></g><g class="dependency"><use href="#up-arrow" height="24" width="36.88" x="321.48" y="333"></use><text x="339.92" y="350.76">168</text></g></svg>